<svg xmlns="http://www.w3.org/2000/svg" width="47.97" height="28" viewBox="0 0 47.97 28">
  <defs>
    <style>
      .cls-1 {
        fill: #d3d4ed;
        fill-rule: evenodd;
      }
    </style>
  </defs>
  <path id="eye" class="cls-1" d="M2592.5,1288.5a9,9,0,1,1,9-9A9,9,0,0,1,2592.5,1288.5Zm23.48-10.34q-23.475-25.32-46.96,0a1.994,1.994,0,0,0,0,2.68q23.475,25.32,46.96,0A1.994,1.994,0,0,0,2615.98,1278.16Zm-18.48,1.34a5,5,0,1,1-5-5A5,5,0,0,1,2597.5,1279.5Z" transform="translate(-2568.53 -1265.5)"/>
</svg>
